<?xml version="1.0" encoding="UTF-8" standalone="no"?>
<!-- Created with Inkscape (http://www.inkscape.org/) -->

<svg
   xmlns:dc="http://purl.org/dc/elements/1.1/"
   xmlns:cc="http://creativecommons.org/ns#"
   xmlns:rdf="http://www.w3.org/1999/02/22-rdf-syntax-ns#"
   xmlns:svg="http://www.w3.org/2000/svg"
   xmlns="http://www.w3.org/2000/svg"
   xmlns:sodipodi="http://sodipodi.sourceforge.net/DTD/sodipodi-0.dtd"
   xmlns:inkscape="http://www.inkscape.org/namespaces/inkscape"
   id="svg2985"
   version="1.1"
   inkscape:version="0.48.1 "
   width="31.984863"
   height="31.987442"
   xml:space="preserve"
   sodipodi:docname="msi_symbol.svg"
   inkscape:export-filename="C:\workspace\eeins\src\main\resources\images\msi\msi_unack_symbol_32.png"
   inkscape:export-xdpi="90.040001"
   inkscape:export-ydpi="90.040001"><metadata
     id="metadata2991"><rdf:RDF><cc:Work
         rdf:about=""><dc:format>image/svg+xml</dc:format><dc:type
           rdf:resource="http://purl.org/dc/dcmitype/StillImage" /><dc:title></dc:title></cc:Work></rdf:RDF></metadata><defs
     id="defs2989"><clipPath
   clipPathUnits="userSpaceOnUse"
   id="clipPath2999"><path
     d="m 0,52.285 595.281,0 0,757.605 L 0,809.89 0,52.285 z"
     id="path3001"
     inkscape:connector-curvature="0" /></clipPath><clipPath
   clipPathUnits="userSpaceOnUse"
   id="clipPath3013"><path
     d="m 0,841.89 595.28,0 L 595.28,0 0,0 0,841.89 z"
     id="path3015"
     inkscape:connector-curvature="0" /></clipPath><clipPath
   clipPathUnits="userSpaceOnUse"
   id="clipPath3021"><path
     d="m 250.035,496.171 25.513,0 0,-25.511 -25.513,0 0,25.511 z"
     id="path3023"
     inkscape:connector-curvature="0" /></clipPath><clipPath
   clipPathUnits="userSpaceOnUse"
   id="clipPath3025"><path
     d="m 250.035,496.171 25.513,0 0,-25.511 -25.513,0 0,25.511 z"
     id="path3027"
     inkscape:connector-curvature="0" /></clipPath><clipPath
   clipPathUnits="userSpaceOnUse"
   id="clipPath3057"><path
     d="m 462.274,760.598 17.033,0 0,-17.031 -17.033,0 0,17.031 z"
     id="path3059"
     inkscape:connector-curvature="0" /></clipPath><clipPath
   clipPathUnits="userSpaceOnUse"
   id="clipPath3061"><path
     d="m 462.274,760.598 17.033,0 0,-17.031 -17.033,0 0,17.031 z"
     id="path3063"
     inkscape:connector-curvature="0" /></clipPath><clipPath
   clipPathUnits="userSpaceOnUse"
   id="clipPath3093"><path
     d="m 286.004,496.387 25.945,0 0,-25.943 -25.945,0 0,25.943 z"
     id="path3095"
     inkscape:connector-curvature="0" /></clipPath><clipPath
   clipPathUnits="userSpaceOnUse"
   id="clipPath3097"><path
     d="m 286.004,496.387 25.945,0 0,-25.943 -25.945,0 0,25.943 z"
     id="path3099"
     inkscape:connector-curvature="0" /></clipPath><clipPath
   clipPathUnits="userSpaceOnUse"
   id="clipPath3101"><path
     d="m 289.862,488.97 18.33,0 0,-11.925 -18.33,0 0,11.925 z"
     id="path3103"
     inkscape:connector-curvature="0" /></clipPath><clipPath
   clipPathUnits="userSpaceOnUse"
   id="clipPath3137"><path
     d="m 251.187,460.32 25.514,0 0,-25.511 -25.514,0 0,25.511 z"
     id="path3139"
     inkscape:connector-curvature="0" /></clipPath><clipPath
   clipPathUnits="userSpaceOnUse"
   id="clipPath3141"><path
     d="m 251.187,460.32 25.514,0 0,-25.511 -25.514,0 0,25.511 z"
     id="path3143"
     inkscape:connector-curvature="0" /></clipPath><clipPath
   clipPathUnits="userSpaceOnUse"
   id="clipPath3173"><path
     d="m 287.156,460.536 25.946,0 0,-25.943 -25.946,0 0,25.943 z"
     id="path3175"
     inkscape:connector-curvature="0" /></clipPath><clipPath
   clipPathUnits="userSpaceOnUse"
   id="clipPath3177"><path
     d="m 287.156,460.536 25.946,0 0,-25.943 -25.946,0 0,25.943 z"
     id="path3179"
     inkscape:connector-curvature="0" /></clipPath><clipPath
   clipPathUnits="userSpaceOnUse"
   id="clipPath3181"><path
     d="m 291.015,453.119 18.33,0 0,-11.925 -18.33,0 0,11.925 z"
     id="path3183"
     inkscape:connector-curvature="0" /></clipPath><clipPath
   clipPathUnits="userSpaceOnUse"
   id="clipPath3217"><path
     d="m 468.36,764.074 12.702,0 0,-12.228 -12.702,0 0,12.228 z"
     id="path3219"
     inkscape:connector-curvature="0" /></clipPath>
</defs><sodipodi:namedview
     pagecolor="#ffffff"
     bordercolor="#666666"
     borderopacity="1"
     objecttolerance="10"
     gridtolerance="10"
     guidetolerance="10"
     inkscape:pageopacity="0"
     inkscape:pageshadow="2"
     inkscape:window-width="1680"
     inkscape:window-height="988"
     id="namedview2987"
     showgrid="false"
     fit-margin-top="0"
     fit-margin-left="0"
     fit-margin-right="0"
     fit-margin-bottom="0"
     inkscape:zoom="8.7698869"
     inkscape:cx="5.979471"
     inkscape:cy="11.781068"
     inkscape:window-x="1272"
     inkscape:window-y="-8"
     inkscape:window-maximized="1"
     inkscape:current-layer="layer1" /><g
     id="g2993"
     inkscape:groupmode="layer"
     inkscape:label="Unacknowledged"
     transform="matrix(1.25,0,0,-1.25,-36.6672,30.708134)"
     style="opacity:0.75;display:inline"><g
       id="g3019"
       transform="matrix(1.0034467,0,0,1.0035276,-221.57302,-473.35027)" /><g
       id="g3855"><g
         transform="matrix(1.0034467,0,0,1.0035276,-221.57302,-473.35027)"
         id="g3033"><g
           id="g3035" /><g
           id="g3037"><g
             clip-path="url(#clipPath3025)"
             id="g3039"
             style="opacity:0.66000402"><g
               transform="translate(275.2637,483.4165)"
               id="g3041"><path
                 d="m 0,0 c 0,-6.887 -5.584,-12.472 -12.471,-12.472 -6.89,0 -12.474,5.585 -12.474,12.472 0,6.889 5.584,12.471 12.474,12.471 C -5.584,12.471 0,6.889 0,0"
                 style="fill:#972064;fill-opacity:1;fill-rule:nonzero;stroke:none"
                 id="path3043"
                 inkscape:connector-curvature="0" /></g><g
               transform="translate(275.2637,483.4165)"
               id="g3045"><path
                 d="m 0,0 c 0,-6.887 -5.584,-12.472 -12.471,-12.472 -6.89,0 -12.474,5.585 -12.474,12.472 0,6.889 5.584,12.471 12.474,12.471 C -5.584,12.471 0,6.889 0,0 z"
                 style="fill:none;stroke:#c25a9d;stroke-width:0.56702268;stroke-linecap:butt;stroke-linejoin:miter;stroke-miterlimit:4;stroke-opacity:1;stroke-dasharray:none"
                 id="path3047"
                 inkscape:connector-curvature="0" /></g></g></g></g><text
         y="-8.130003"
         x="32.979858"
         transform="scale(0.99995969,-1.0000403)"
         id="text3049"
         style="font-size:12.04184532px"><tspan
           style="font-size:11.00815392px;font-variant:normal;font-weight:bold;font-stretch:normal;writing-mode:lr-tb;fill:#ffffff;fill-opacity:1;fill-rule:nonzero;stroke:none;font-family:Myriad Pro;-inkscape-font-specification:MyriadPro-Bold"
           x="32.979858 42.292755 48.23716"
           y="-8.130003"
           sodipodi:role="line"
           id="tspan3051">MSI</tspan></text>
</g></g><g
     inkscape:groupmode="layer"
     id="layer1"
     inkscape:label="Acknowledged"
     style="opacity:0.75;display:none"><g
       id="g3091"
       transform="matrix(1.25,0,0,-1.25,-357.73302,620.26404)" /><g
       id="g3907"><g
         transform="matrix(1.25,0,0,-1.25,-357.73302,620.26404)"
         id="g3109"><g
           id="g3111" /><g
           id="g3113"><g
             clip-path="url(#clipPath3097)"
             id="g3115"
             style="opacity:0.66000402"><g
               transform="translate(311.4492,483.4165)"
               id="g3117"><path
                 d="m 0,0 c 0,-6.887 -5.585,-12.472 -12.472,-12.472 -6.889,0 -12.473,5.585 -12.473,12.472 0,6.889 5.584,12.471 12.473,12.471 C -5.585,12.471 0,6.889 0,0 z"
                 style="fill:none;stroke:#c25a9d;stroke-width:1;stroke-linecap:butt;stroke-linejoin:miter;stroke-miterlimit:4;stroke-opacity:1;stroke-dasharray:none"
                 id="path3119"
                 inkscape:connector-curvature="0" /></g></g></g></g><g
         transform="matrix(1.25,0,0,-1.25,-357.73302,620.26404)"
         id="g3121"><g
           id="g3123" /><g
           id="g3125"><g
             clip-path="url(#clipPath3101)"
             id="g3127"
             style="opacity:0.66000402"><text
   transform="matrix(1,0,0,-1,289.8623,479.7881)"
   id="text3129"><tspan
     style="font-size:10.96990013px;font-variant:normal;font-weight:bold;font-stretch:normal;writing-mode:lr-tb;fill:#972064;fill-opacity:1;fill-rule:nonzero;stroke:none;font-family:Myriad Pro;-inkscape-font-specification:MyriadPro-Bold"
     x="0 9.2805357 15.204282"
     y="0"
     sodipodi:role="line"
     id="tspan3131">MSI</tspan></text>

</g></g></g></g></g></svg>