<?xml version="1.0" encoding="UTF-8" standalone="no"?>
<!-- Created with Inkscape (http://www.inkscape.org/) -->

<svg
   xmlns:dc="http://purl.org/dc/elements/1.1/"
   xmlns:cc="http://creativecommons.org/ns#"
   xmlns:rdf="http://www.w3.org/1999/02/22-rdf-syntax-ns#"
   xmlns:svg="http://www.w3.org/2000/svg"
   xmlns="http://www.w3.org/2000/svg"
   xmlns:sodipodi="http://sodipodi.sourceforge.net/DTD/sodipodi-0.dtd"
   xmlns:inkscape="http://www.inkscape.org/namespaces/inkscape"
   width="71.124046"
   height="32"
   id="svg3101"
   version="1.1"
   inkscape:version="0.48.1 "
   sodipodi:docname="aisSart.svg"
   inkscape:export-filename="C:\Documents and Settings\Jacob Salomonsen\My Documents\Workspace\eeins\src\main\resources\images\ais\aisSart.png"
   inkscape:export-xdpi="90"
   inkscape:export-ydpi="90">
  <defs
     id="defs3103" />
  <sodipodi:namedview
     id="base"
     pagecolor="#ffffff"
     bordercolor="#666666"
     borderopacity="1.0"
     inkscape:pageopacity="0.0"
     inkscape:pageshadow="2"
     inkscape:zoom="5.6"
     inkscape:cx="22.891904"
     inkscape:cy="20.821426"
     inkscape:document-units="px"
     inkscape:current-layer="layer1"
     showgrid="false"
     fit-margin-top="0"
     fit-margin-left="0"
     fit-margin-right="0"
     fit-margin-bottom="0"
     inkscape:window-width="1680"
     inkscape:window-height="988"
     inkscape:window-x="-8"
     inkscape:window-y="-8"
     inkscape:window-maximized="1" />
  <metadata
     id="metadata3106">
    <rdf:RDF>
      <cc:Work
         rdf:about="">
        <dc:format>image/svg+xml</dc:format>
        <dc:type
           rdf:resource="http://purl.org/dc/dcmitype/StillImage" />
        <dc:title></dc:title>
      </cc:Work>
    </rdf:RDF>
  </metadata>
  <g
     inkscape:label="Layer 1"
     inkscape:groupmode="layer"
     id="layer1"
     transform="translate(-45.723357,-660.68917)">
    <path
       style="fill:#ff0000;fill-rule:evenodd;stroke:none"
       d="m 61.722516,660.68917 c -8.836622,0 -15.999159,7.16422 -15.999159,16.00084 0,8.83662 7.162537,15.99916 15.999159,15.99916 8.836623,0 16.000841,-7.16254 16.000841,-15.99916 0,-8.83662 -7.164218,-16.00084 -16.000841,-16.00084 z m 0,2.4618 c 3.267369,0 6.264518,1.15874 8.603671,3.08608 l -8.603671,8.60367 -8.60367,-8.60367 c 2.339157,-1.92736 5.336287,-3.08608 8.60367,-3.08608 z m -10.452963,4.93369 8.605353,8.60535 -8.605353,8.60535 c -1.927866,-2.33894 -3.086081,-5.33748 -3.086081,-8.60535 0,-3.26786 1.158215,-6.26604 3.086081,-8.60535 z m 20.907609,0 c 1.927856,2.3393 3.0844,5.3375 3.0844,8.60535 0,3.26785 -1.156544,6.26641 -3.0844,8.60535 l -8.605354,-8.60535 8.605354,-8.60535 z m -10.454646,10.45464 8.603671,8.60368 c -2.339156,1.92699 -5.33629,3.08439 -8.603671,3.08439 -3.267396,0 -6.264509,-1.15739 -8.60367,-3.08439 l 8.60367,-8.60368 z"
       id="path3109"
       inkscape:connector-curvature="0"
       inkscape:export-filename="C:\workspace\eeins\src\main\resources\images\ais\aisSart.png"
       inkscape:export-xdpi="90"
       inkscape:export-ydpi="90" />
    <path
       style="fill:#e6e6e6;fill-rule:evenodd;stroke:none"
       d="m 100.84656,660.68917 c -8.836619,0 -15.999156,7.16422 -15.999156,16.00084 0,8.83662 7.162537,15.99916 15.999156,15.99916 8.83663,0 16.00084,-7.16254 16.00084,-15.99916 0,-8.83662 -7.16421,-16.00084 -16.00084,-16.00084 z m 0,2.4618 c 3.26737,0 6.26452,1.15874 8.60367,3.08608 l -8.60367,8.60367 -8.603667,-8.60367 c 2.339157,-1.92736 5.336287,-3.08608 8.603667,-3.08608 z m -10.45296,4.93369 8.605353,8.60535 -8.605353,8.60535 c -1.927866,-2.33894 -3.086081,-5.33748 -3.086081,-8.60535 0,-3.26786 1.158215,-6.26604 3.086081,-8.60535 z m 20.90761,0 c 1.92785,2.3393 3.0844,5.3375 3.0844,8.60535 0,3.26785 -1.15655,6.26641 -3.0844,8.60535 l -8.60536,-8.60535 8.60536,-8.60535 z m -10.45465,10.45464 8.60367,8.60368 c -2.33915,1.92699 -5.33629,3.08439 -8.60367,3.08439 -3.267393,0 -6.264506,-1.15739 -8.603667,-3.08439 l 8.603667,-8.60368 z"
       id="path3109-1"
       inkscape:connector-curvature="0"
       inkscape:export-filename="C:\workspace\eeins\src\main\resources\images\ais\aisSartOld.png"
       inkscape:export-xdpi="90"
       inkscape:export-ydpi="90" />
  </g>
</svg>
